# xmcd CD database file
# Generated: Mon Jan 6 21:24:09 2003 by KSCD
# 
# Track frame offsets:
#       150
#       15247
#       28812
#       45265
#       64665
#       71847
#       84745
#       106167
#
# Disc length: 1522 seconds
#
# Revision: 1
# Processed by: cddbd v1.4PL0 Copyright (c) Steve Scherf et al.
# Submitted via: Kscd 1.3.3
#
DISCID=5c05f008
DTITLE=All That Blue - it's pop
DYEAR=1900
DGENRE=
TTITLE0=Bleu fonce (intro)
TTITLE1=Blue Bowl
TTITLE2=Andelina
TTITLE3=Tocando em frente
TTITLE4=Bim Bom
TTITLE5=Dada je suis
TTITLE6=Coffee Break Blues
TTITLE7=On The Way
EXTD=
EXTT0=
EXTT1=
EXTT2=
EXTT3=
EXTT4=
EXTT5=
EXTT6=
EXTT7=
PLAYORDER=
